<?xml version="1.0" encoding="UTF-8" standalone="no"?>
<svg width="140px" height="115px" viewBox="0 0 140 115" version="1.1" xmlns="http://www.w3.org/2000/svg" xmlns:xlink="http://www.w3.org/1999/xlink">
    <!-- Generator: Sketch 3.8.2 (29753) - http://www.bohemiancoding.com/sketch -->
    <title>Page 1 Copy</title>
    <desc>Created with Sketch.</desc>
    <defs>
        <linearGradient x1="0%" y1="289.474338%" x2="855.220244%" y2="-335.628295%" id="linearGradient-1">
            <stop stop-color="#4DBEAA" offset="0%"></stop>
            <stop stop-color="#8CD0CA" offset="100%"></stop>
        </linearGradient>
    </defs>
    <g id="Page-1" stroke="none" stroke-width="1" fill="none" fill-rule="evenodd">
        <g id="Desktop-Copy" transform="translate(-82.000000, -46.000000)" fill="url(#linearGradient-1)">
            <g id="Page-1-Copy" transform="translate(82.000000, 46.000000)">
                <path d="M2.81244444,65.4938986 L2.81244444,80.5449122 L2.97422222,80.5449122 C5.06488889,80.5449122 6.63911111,80.4501149 7.69533333,80.2620743 C8.75,80.0724797 9.75333333,79.6606554 10.7006667,79.0266014 C11.6495556,78.3894392 12.404,77.5486959 12.9624444,76.4981554 C13.524,75.4476149 13.804,74.2945068 13.804,73.035723 C13.804,71.4521419 13.356,70.0208581 12.4631111,68.7403176 C11.5686667,67.459777 10.4984444,66.597277 9.25555556,66.1559257 C8.00955556,65.7145743 6.33733333,65.4938986 4.23577778,65.4938986 L2.81244444,65.4938986 Z M0,62.7478851 L4.99488889,62.7478851 C8.94911111,62.7478851 11.8922222,63.7922095 13.8195556,65.8808581 C15.7484444,67.9695068 16.7144444,70.3549797 16.7144444,73.035723 C16.7144444,75.7366689 15.7173333,78.1268041 13.7246667,80.2045743 C11.7288889,82.2823446 8.83088889,83.3220068 5.02755556,83.3220068 L0,83.3220068 L0,62.7478851 Z" id="Fill-1"></path>
                <path d="M30.5178222,76.6105135 C30.5178222,75.4776081 30.0869333,74.4954459 29.2236,73.6593649 C28.3618222,72.8217297 27.3382667,72.4052432 26.1529333,72.4052432 C24.9349333,72.4052432 23.8864889,72.8279459 23.0091556,73.6749054 C22.1302667,74.5218649 21.6916,75.5335541 21.6916,76.7068649 C21.6916,77.8304459 22.1364889,78.8110541 23.0262667,79.6533514 C23.9144889,80.4940946 24.9567111,80.9152432 26.1529333,80.9152432 C27.3164889,80.9152432 28.3353778,80.4832162 29.2080444,79.6207162 C30.0807111,78.7582162 30.5178222,77.7542973 30.5178222,76.6105135 M18.9444889,76.6042973 C18.9444889,74.7829459 19.6631556,73.1651757 21.1020444,71.7509865 C22.5409333,70.3352432 24.1929333,69.6265946 26.0564889,69.6265946 C27.9744889,69.6265946 29.6498222,70.3243649 31.0824889,71.7183514 C32.5151556,73.1123378 33.2322667,74.7409865 33.2322667,76.6042973 C33.2322667,78.4769324 32.5291556,80.1257838 31.1244889,81.5524054 C29.7167111,82.979027 28.0927111,83.6923378 26.2509333,83.6923378 C24.2784889,83.6923378 22.5673778,82.9883514 21.1176,81.5757162 C19.6678222,80.1661892 18.9444889,78.5095676 18.9444889,76.6042973" id="Fill-2"></path>
                <path d="M39.3740667,69.999723 L39.3740667,72.7441824 C39.9994,71.6454662 40.6107333,70.8528986 41.2096222,70.3618176 C41.8069556,69.8722905 42.5847333,69.62675 43.5460667,69.62675 C43.8136222,69.62675 44.2025111,69.6935743 44.7096222,69.8210068 L43.8525111,72.6307365 C43.3127333,72.5235068 42.9580667,72.4706689 42.7838444,72.4706689 C41.8365111,72.4706689 41.0416222,72.8016824 40.4007333,73.4637095 C39.7598444,74.1241824 39.4394,74.9509392 39.4394,75.9408716 L39.4394,83.3210743 L36.6269556,83.3210743 L36.6269556,69.999723 L39.3740667,69.999723 Z" id="Fill-3"></path>
                <path d="M47.6668889,83.3213851 L47.6668889,70.0000338 L50.4466667,70.0000338 L50.4466667,72.048277 C51.1046667,71.2106419 51.7315556,70.5967905 52.3304444,70.208277 C52.9277778,69.8197635 53.6137778,69.6255068 54.39,69.6255068 C55.4042222,69.6255068 56.1975556,69.8477365 56.7746667,70.2890878 C57.3517778,70.7304392 57.8386667,71.4359797 58.2368889,72.4057095 C58.94,71.4359797 59.6197778,70.7304392 60.2731111,70.2890878 C60.928,69.8477365 61.6886667,69.6255068 62.5535556,69.6255068 C63.6144444,69.6255068 64.5275556,70.0233446 65.296,70.8128041 C66.0644444,71.6053716 66.4486667,72.5440203 66.4486667,73.6334122 L66.4486667,83.3213851 L63.6362222,83.3213851 L63.6362222,74.3576014 C63.6362222,72.8828041 62.9066667,72.1461824 61.446,72.1461824 C60.6153333,72.1461824 59.9091111,72.5238176 59.3304444,73.2775338 C58.7533333,74.0296959 58.4624444,74.9621284 58.4624444,76.0701689 L58.4624444,83.3213851 L55.6515556,83.3213851 L55.6515556,74.7305743 C55.6515556,72.9869257 54.9344444,72.1151014 53.5017778,72.1151014 C52.6508889,72.1151014 51.9275556,72.4709797 51.3348889,73.1811824 C50.7437778,73.8913851 50.4466667,74.7678716 50.4466667,75.8121959 L50.4466667,83.3213851 L47.6668889,83.3213851 Z" id="Fill-4"></path>
                <path d="M70.2784444,70.0000338 L73.0597778,70.0000338 L73.0597778,83.3213851 L70.2784444,83.3213851 L70.2784444,70.0000338 Z M69.4866667,65.6222635 C69.4866667,65.0410473 69.7028889,64.5390878 70.1337778,64.113277 C70.5646667,63.6874662 71.0764444,63.4761149 71.6691111,63.4761149 C72.2524444,63.4761149 72.7548889,63.6874662 73.1795556,64.113277 C73.6073333,64.5390878 73.8188889,65.0410473 73.8188889,65.6222635 C73.8188889,66.2143581 73.6073333,66.7209797 73.1795556,67.1405743 C72.7548889,67.5586149 72.2524444,67.7699662 71.6691111,67.7699662 C71.0764444,67.7699662 70.5646667,67.5586149 70.1337778,67.1405743 C69.7028889,66.7209797 69.4866667,66.2143581 69.4866667,65.6222635 L69.4866667,65.6222635 Z" id="Fill-5"></path>
                <path d="M80.3973333,69.999723 L80.3973333,72.7441824 C81.0226667,71.6454662 81.634,70.8528986 82.2328889,70.3618176 C82.8302222,69.8722905 83.608,69.62675 84.5677778,69.62675 C84.8368889,69.62675 85.2257778,69.6935743 85.7313333,69.8210068 L84.8757778,72.6307365 C84.336,72.5235068 83.9813333,72.4706689 83.8071111,72.4706689 C82.8597778,72.4706689 82.0648889,72.8016824 81.424,73.4637095 C80.7831111,74.1241824 80.4626667,74.9509392 80.4626667,75.9408716 L80.4626667,83.3210743 L77.6486667,83.3210743 L77.6486667,69.999723 L80.3973333,69.999723 Z" id="Fill-6"></path>
                <path d="M91.7449556,73.7603784 L91.7449556,80.8017973 L91.9705111,80.8017973 C94.3956222,80.8017973 96.0491778,80.4132838 96.9327333,79.6393649 C97.8162889,78.8638919 98.2580667,78.0728784 98.2580667,77.2663243 C98.2580667,76.2002432 97.7618444,75.3486216 96.7709556,74.7130135 C95.7800667,74.0789595 94.4220667,73.7603784 92.6969556,73.7603784 L91.7449556,73.7603784 Z M91.7449556,65.2348378 L91.7449556,71.3236216 C93.2958444,71.3018649 94.4842889,71.0050405 95.3087333,70.4331486 C96.1316222,69.8628108 96.5454,69.0780135 96.5454,68.0787568 C96.5454,67.2038243 96.1736222,66.5091622 95.4300667,65.987 C94.6865111,65.4648378 93.6894,65.2037568 92.4387333,65.2037568 C92.1696222,65.2037568 91.9378444,65.2130811 91.7449556,65.2348378 L91.7449556,65.2348378 Z M88.9636222,62.7483514 L92.2302889,62.7483514 C94.3722889,62.7483514 96.1238444,63.2145676 97.4818444,64.1454459 C98.8414,65.0732162 99.5196222,66.2496351 99.5196222,67.6684865 C99.5196222,69.4012568 98.5178444,70.8480811 96.5111778,72.0089595 C99.6160667,73.0439595 101.168511,74.8373378 101.168511,77.3906486 C101.168511,79.1684865 100.3674,80.6013243 98.7682889,81.6891622 C97.1660667,82.7785541 95.0256222,83.3209189 92.3422889,83.3209189 L88.9636222,83.3209189 L88.9636222,62.7483514 Z" id="Fill-7"></path>
                <path d="M105.112,70.0000338 L107.891778,70.0000338 L107.891778,83.3213851 L105.112,83.3213851 L105.112,70.0000338 Z M104.320222,65.6222635 C104.320222,65.0410473 104.534889,64.5390878 104.965778,64.113277 C105.396667,63.6874662 105.908444,63.4761149 106.501111,63.4761149 C107.082889,63.4761149 107.586889,63.6874662 108.013111,64.113277 C108.437778,64.5390878 108.650889,65.0410473 108.650889,65.6222635 C108.650889,66.2143581 108.437778,66.7209797 108.013111,67.1405743 C107.586889,67.5586149 107.082889,67.7699662 106.501111,67.7699662 C105.908444,67.7699662 105.396667,67.5586149 104.965778,67.1405743 C104.534889,66.7209797 104.320222,66.2143581 104.320222,65.6222635 L104.320222,65.6222635 Z" id="Fill-8"></path>
                <path d="M114.324933,74.956223 L122.469822,74.956223 C121.566044,73.1255473 120.229822,72.2102095 118.462711,72.2102095 C116.533822,72.2102095 115.154044,73.1255473 114.324933,74.956223 M125.412933,77.200277 L114.034044,77.200277 C114.282933,78.5678446 114.844489,79.5671014 115.721822,80.1949392 C116.600711,80.8258851 117.557378,81.1398041 118.591822,81.1398041 C120.187822,81.1398041 121.522489,80.4793311 122.600489,79.153723 L124.653822,80.7046689 C123.112267,82.6954122 121.048044,83.6915608 118.462711,83.6915608 C116.480933,83.6915608 114.8196,83.0155473 113.484933,81.6573041 C112.148711,80.3006149 111.479822,78.6160203 111.479822,76.6050743 C111.479822,74.7200068 112.154933,73.0866959 113.509822,71.7020338 C114.8616,70.3189257 116.512044,69.6258176 118.462711,69.6258176 C120.380711,69.6258176 122.023378,70.3298041 123.392267,71.736223 C124.761156,73.1395338 125.434711,74.9624392 125.412933,77.200277" id="Fill-9"></path>
                <path d="M128.128933,83.3213851 L128.128933,70.0000338 L130.876044,70.0000338 L130.876044,72.2114527 C131.683378,71.3163176 132.4176,70.6636149 133.074044,70.2486824 C133.732044,69.8353041 134.464711,69.6255068 135.2736,69.6255068 C136.479156,69.6255068 137.510489,70.0248986 138.3676,70.8221284 C139.224711,71.6193581 139.652489,72.5766554 139.652489,73.6971284 L139.652489,83.3213851 L136.8416,83.3213851 L136.8416,74.519223 C136.8416,73.7996959 136.605156,73.2013851 136.136933,72.7289527 C135.668711,72.2549662 135.072933,72.01875 134.351156,72.01875 C133.413156,72.01875 132.605822,72.4119257 131.926044,73.2044932 C131.247822,73.9955068 130.908711,74.9496959 130.908711,76.0701689 L130.908711,83.3213851 L128.128933,83.3213851 Z" id="Fill-10"></path>
                <path d="M22.6534,87.859223 L22.6534,89.4490203 C21.5442889,88.9066554 20.5222889,88.6331419 19.5905111,88.6331419 C18.3942889,88.6331419 17.3862889,89.0185473 16.5680667,89.7893581 C15.7498444,90.561723 15.3407333,91.51125 15.3407333,92.633277 C15.3407333,93.7801689 15.7576222,94.7359122 16.5960667,95.5020608 C17.4345111,96.2666554 18.4829556,96.6505068 19.7445111,96.6505068 C20.6607333,96.6505068 21.6298444,96.3645608 22.6534,95.7880068 L22.6534,97.3933446 C21.7216222,97.8875338 20.7120667,98.1361824 19.6231778,98.1361824 C18.0271778,98.1361824 16.6645111,97.5984797 15.5336222,96.5184122 C14.4011778,95.4414527 13.8365111,94.1391554 13.8365111,92.6192905 C13.8365111,91.1227365 14.3918444,89.8421959 15.5056222,88.7776689 C16.6178444,87.7131419 17.9571778,87.1801014 19.5251778,87.1801014 C20.5347333,87.1801014 21.5769556,87.4069932 22.6534,87.859223" id="Fill-11"></path>
                <polygon id="Fill-12" points="24.3833333 97.7880743 25.788 97.7880743 25.788 87.3090878 24.3833333 87.3090878"></polygon>
                <path d="M27.9548889,91.1273986 L29.3455556,91.1273986 L29.3455556,97.7880743 L27.9548889,97.7880743 L27.9548889,91.1273986 Z M27.7293333,89.90125 L28.8042222,87.6556419 L30.7113333,87.6556419 L28.9255556,89.90125 L27.7293333,89.90125 Z" id="Fill-13"></path>
                <path d="M31.1876444,97.7890068 L31.1876444,91.1283311 L32.5627556,91.1283311 L32.5627556,92.2348176 C32.9672,91.78725 33.3327556,91.4608986 33.6609778,91.2526554 C33.9892,91.0459662 34.3563111,90.9433986 34.7607556,90.9433986 C35.3643111,90.9433986 35.8792,91.1423176 36.3069778,91.5401554 C36.7347556,91.9379932 36.9494222,92.4181959 36.9494222,92.9761014 L36.9494222,97.7890068 L35.5447556,97.7890068 L35.5447556,93.3894797 C35.5447556,93.0289392 35.4280889,92.7290068 35.1916444,92.4927905 C34.9583111,92.2550203 34.6596444,92.1369122 34.2987556,92.1369122 C33.8305333,92.1369122 33.4260889,92.3358311 33.0869778,92.7305608 C32.7478667,93.1268446 32.5783111,93.6054932 32.5783111,94.1633986 L32.5783111,97.7890068 L31.1876444,97.7890068 Z" id="Fill-14"></path>
                <path d="M38.8328889,91.1273986 L40.2235556,91.1273986 L40.2235556,97.7880743 L38.8328889,97.7880743 L38.8328889,91.1273986 Z M38.4362222,88.9392905 C38.4362222,88.6502365 38.5451111,88.3984797 38.7597778,88.1855743 C38.976,87.9726689 39.2311111,87.8654392 39.5282222,87.8654392 C39.8191111,87.8654392 40.0711111,87.9726689 40.2842222,88.1855743 C40.4973333,88.3984797 40.6031111,88.6502365 40.6031111,88.9392905 C40.6031111,89.2376689 40.4973333,89.4894257 40.2842222,89.699223 C40.0711111,89.9074662 39.8191111,90.0146959 39.5282222,90.0146959 C39.2311111,90.0146959 38.976,89.9074662 38.7597778,89.699223 C38.5451111,89.4894257 38.4362222,89.2376689 38.4362222,88.9392905 L38.4362222,88.9392905 Z" id="Fill-15"></path>
                <path d="M47.3265333,95.7538176 L47.3265333,97.3607095 C46.6109778,97.7694257 45.9156444,97.9761149 45.2420889,97.9761149 C44.3196444,97.9761149 43.5138667,97.6295608 42.8216444,96.9380068 C42.1294222,96.2448986 41.7840889,95.4445608 41.7840889,94.5354392 C41.7840889,93.5019932 42.1278667,92.6457095 42.8185333,91.9634797 C43.5076444,91.2828041 44.3725333,90.9424662 45.4132,90.9424662 C46.0307556,90.9424662 46.6700889,91.1040878 47.3265333,91.4273311 L47.3265333,92.9938176 C46.6218667,92.5415878 45.9529778,92.3146959 45.3229778,92.3146959 C44.7412,92.3146959 44.2325333,92.5198311 43.7954222,92.9285473 C43.3583111,93.3372635 43.1420889,93.8174662 43.1420889,94.3660473 C43.1420889,94.9861149 43.3443111,95.5051689 43.7549778,95.9278716 C44.1640889,96.3521284 44.6649778,96.5619257 45.2576444,96.5619257 C45.8627556,96.5619257 46.5518667,96.2930743 47.3265333,95.7538176" id="Fill-16"></path>
                <path d="M54.5043333,94.479027 C54.5043333,93.8698378 54.285,93.3492297 53.8478889,92.9156486 C53.4107778,92.4836216 52.8865556,92.2660541 52.2767778,92.2660541 C51.6841111,92.2660541 51.1661111,92.4820676 50.7212222,92.9125405 C50.2794444,93.3445676 50.0601111,93.8496351 50.0601111,94.4308514 C50.0601111,95.0602432 50.2732222,95.5963919 50.7072222,96.0361892 C51.1381111,96.4790946 51.6623333,96.6997703 52.2767778,96.6997703 C52.8865556,96.6997703 53.4107778,96.4790946 53.8478889,96.0424054 C54.285,95.6026081 54.5043333,95.082 54.5043333,94.479027 L54.5043333,94.479027 Z M54.3098889,91.1284865 L55.7161111,91.1284865 L55.7161111,97.7891622 L54.3098889,97.7891622 L54.3098889,96.4635541 C53.6254444,97.4721351 52.7776667,97.9756486 51.7634444,97.9756486 C50.8861111,97.9756486 50.1347778,97.6290946 49.5125556,96.9406486 C48.8918889,96.2522027 48.5792222,95.4161216 48.5792222,94.4308514 C48.5792222,93.4984189 48.895,92.6856486 49.5218889,91.9863243 C50.1487778,91.2916622 50.8861111,90.9435541 51.7323333,90.9435541 C52.255,90.9435541 52.7496667,91.084973 53.2194444,91.3709189 C53.6876667,91.6568649 54.0516667,92.0267297 54.3098889,92.4851757 L54.3098889,91.1284865 Z" id="Fill-17"></path>
                <path d="M68.1457778,94.4456149 C68.1457778,93.8488581 67.9264444,93.3313581 67.4893333,92.8915608 C67.0522222,92.4548716 66.5311111,92.2341959 65.9275556,92.2341959 C65.3006667,92.2341959 64.7702222,92.4486554 64.3362222,92.8760203 C63.9006667,93.3049392 63.6844444,93.8271014 63.6844444,94.4456149 C63.6844444,95.0377095 63.9053333,95.5567635 64.3486667,95.9996689 C64.792,96.4456824 65.3068889,96.6679122 65.8948889,96.6679122 C66.5202222,96.6679122 67.0522222,96.4518986 67.4893333,96.0214257 C67.9264444,95.5893986 68.1457778,95.0641284 68.1457778,94.4456149 L68.1457778,94.4456149 Z M67.984,87.3093986 L69.3746667,87.3093986 L69.3746667,97.7883851 L67.9995556,97.7883851 L67.9995556,96.4006149 C67.3353333,97.4511554 66.4673333,97.9748716 65.3924444,97.9748716 C64.526,97.9748716 63.7808889,97.6267635 63.1602222,96.9336554 C62.5395556,96.2389932 62.23,95.4044662 62.23,94.4300743 C62.23,93.4774392 62.5442222,92.6584527 63.1773333,91.9715608 C63.8073333,91.286223 64.5602222,90.942777 65.4344444,90.942777 C65.9586667,90.942777 66.4455556,91.0888581 66.8982222,91.3779122 C67.3524444,91.6685203 67.7148889,92.0477095 67.984,92.5170338 L67.984,87.3093986 Z" id="Fill-18"></path>
                <path d="M72.6393111,93.6079797 L76.7117556,93.6079797 C76.2590889,92.6910878 75.5902,92.2341959 74.7082,92.2341959 C73.7437556,92.2341959 73.0546444,92.6910878 72.6393111,93.6079797 M78.1817556,94.7300068 L72.4930889,94.7300068 C72.6175333,95.4137905 72.8990889,95.9110878 73.3377556,96.2281149 C73.7764222,96.5420338 74.2555333,96.6989932 74.7719778,96.6989932 C75.5699778,96.6989932 76.2373111,96.3679797 76.7770889,95.7059527 L77.8022,96.4829797 C77.0322,97.4775743 76.0008667,97.9764257 74.7082,97.9764257 C73.7157556,97.9764257 72.8866444,97.6360878 72.2177556,96.9569662 C71.5504222,96.2793986 71.2175333,95.4371014 71.2175333,94.4300743 C71.2175333,93.4898716 71.5550889,92.6708851 72.2302,91.9808851 C72.9068667,91.2893311 73.7328667,90.942777 74.7082,90.942777 C75.6664222,90.942777 76.4893111,91.2939932 77.1722,91.9964257 C77.8566444,92.6988581 78.1942,93.6095338 78.1817556,94.7300068" id="Fill-19"></path>
                <polygon id="Fill-20" points="79.9928889 97.7880743 81.3991111 97.7880743 81.3991111 87.3090878 79.9928889 87.3090878"></polygon>
                <path d="M94.4186444,88.6497703 L93.2799778,89.562 C92.9782,89.2496351 92.7059778,89.016527 92.4602,88.8642297 C92.2159778,88.7088243 91.8628667,88.6326757 91.4008667,88.6326757 C90.8953111,88.6326757 90.4862,88.7476757 90.1719778,88.9761216 C89.8562,89.2030135 89.7006444,89.4982838 89.7006444,89.8557162 C89.7006444,90.1696351 89.8375333,90.4415946 90.1097556,90.682473 C90.3850889,90.9217973 90.8533111,91.1828784 91.5159778,91.4657162 C92.1770889,91.7501081 92.6919778,92.0142973 93.0606444,92.2598378 C93.4277556,92.5022703 93.7310889,92.7726757 93.9675333,93.0710541 C94.2039778,93.3647703 94.3813111,93.6771351 94.4964222,94.0050405 C94.6115333,94.3329459 94.6690889,94.6810541 94.6690889,95.0462568 C94.6690889,95.9025405 94.3595333,96.6313919 93.7373111,97.2312568 C93.1135333,97.8357838 92.3622,98.1357162 91.4770889,98.1357162 C90.6153111,98.1357162 89.8546444,97.8995 89.1950889,97.4286216 C88.5355333,96.9592973 88.0268667,96.2522027 87.6706444,95.3104459 L89.0768667,94.9141622 C89.5902,96.0719324 90.3726444,96.6500405 91.4288667,96.6500405 C91.9406444,96.6500405 92.3668667,96.4977432 92.7059778,96.1915946 C93.0450889,95.887 93.2162,95.4984865 93.2162,95.0322703 C93.2162,94.7540946 93.1259778,94.4728108 92.9486444,94.189973 C92.7697556,93.9102432 92.5488667,93.6771351 92.2844222,93.4953108 C92.0199778,93.3134865 91.5999778,93.1036892 91.0228667,92.867473 C90.4473111,92.6312568 90.0039778,92.4152432 89.6928667,92.2178784 C89.3817556,92.0236216 89.1126444,91.7889595 88.8855333,91.517 C88.6584222,91.2450405 88.4919778,90.9746351 88.3877556,90.7057838 C88.2819778,90.4353784 88.2290889,90.1494324 88.2290889,89.8432838 C88.2290889,89.1066622 88.5246444,88.4788243 89.1188667,87.9597703 C89.7115333,87.4407162 90.4302,87.1796351 91.2748667,87.1796351 C91.8364222,87.1796351 92.4042,87.3008514 92.9813111,87.5432838 C93.5568667,87.7857162 94.0375333,88.154027 94.4186444,88.6497703" id="Fill-21"></path>
                <path d="M96.0274,91.1281757 L97.4336222,91.1281757 L97.4336222,94.8827703 C97.4336222,96.0389865 97.9422889,96.6186486 98.9611778,96.6186486 C99.4138444,96.6186486 99.7716222,96.4647973 100.036067,96.1539865 C100.300511,95.8447297 100.432733,95.420473 100.432733,94.8827703 L100.432733,91.1281757 L101.8234,91.1281757 L101.8234,95.1096622 C101.8234,95.9426351 101.551178,96.629527 101.005178,97.1687838 C100.462289,97.7049324 99.7669556,97.9753378 98.9207333,97.9753378 C98.0589556,97.9753378 97.3605111,97.7049324 96.8285111,97.1687838 C96.2949556,96.629527 96.0274,95.9270946 96.0274,95.0599324 L96.0274,91.1281757 Z" id="Fill-22"></path>
                <path d="M104.6346,93.6079797 L108.707044,93.6079797 C108.254378,92.6910878 107.587044,92.2341959 106.703489,92.2341959 C105.739044,92.2341959 105.049933,92.6910878 104.6346,93.6079797 M110.1786,94.7300068 L104.488378,94.7300068 C104.612822,95.4137905 104.894378,95.9110878 105.333044,96.2281149 C105.771711,96.5420338 106.250822,96.6989932 106.768822,96.6989932 C107.565267,96.6989932 108.2326,96.3679797 108.772378,95.7059527 L109.799044,96.4829797 C109.027489,97.4775743 107.996156,97.9764257 106.703489,97.9764257 C105.711044,97.9764257 104.881933,97.6360878 104.213044,96.9569662 C103.547267,96.2793986 103.212822,95.4371014 103.212822,94.4300743 C103.212822,93.4898716 103.550378,92.6708851 104.225489,91.9808851 C104.903711,91.2893311 105.728156,90.942777 106.703489,90.942777 C107.661711,90.942777 108.4846,91.2939932 109.169044,91.9964257 C109.851933,92.6988581 110.189489,93.6095338 110.1786,94.7300068" id="Fill-23"></path>
                <path d="M112.854311,89.7076149 L111.779422,89.7076149 L111.779422,89.6019392 C111.779422,89.0999797 111.934978,88.6881554 112.247644,88.36025 C112.560311,88.0307905 112.955422,87.8645068 113.436089,87.8645068 C113.683422,87.8645068 114.0552,87.9810608 114.551422,88.2048446 C115.046089,88.4317365 115.380533,88.5451824 115.551644,88.5451824 C115.741422,88.5451824 115.876756,88.4907905 115.960756,88.3788986 C116.044756,88.2685608 116.102311,88.0929527 116.134978,87.8505203 L117.192756,87.8505203 C117.170978,88.4426149 117.0232,88.8963986 116.744756,89.2103176 C116.467867,89.5257905 116.091422,89.68275 115.616978,89.68275 C115.256089,89.68275 114.854756,89.5553176 114.412978,89.3035608 C113.977422,89.0611284 113.6632,88.9399122 113.468756,88.9399122 C113.283644,88.9399122 113.137422,89.0051824 113.022311,89.1341689 C112.910311,89.2631554 112.854311,89.4294392 112.854311,89.6345743 L112.854311,89.7076149 Z M111.5352,97.7886959 L111.5352,91.1280203 L112.910311,91.1280203 L112.910311,92.2345068 C113.314756,91.7869392 113.680311,91.4605878 114.008533,91.2523446 C114.338311,91.0456554 114.703867,90.9430878 115.108311,90.9430878 C115.711867,90.9430878 116.228311,91.1420068 116.656089,91.5413986 C117.085422,91.9392365 117.298533,92.4178851 117.298533,92.9773446 L117.298533,97.7886959 L115.892311,97.7886959 L115.892311,93.3891689 C115.892311,93.0286284 115.775644,92.7286959 115.542311,92.4924797 C115.305867,92.2562635 115.008756,92.1366014 114.647867,92.1366014 C114.179644,92.1366014 113.7752,92.3355203 113.436089,92.73025 C113.095422,93.1265338 112.927422,93.6051824 112.927422,94.1630878 L112.927422,97.7886959 L111.5352,97.7886959 Z" id="Fill-24"></path>
                <path d="M124.458756,94.4334932 C124.458756,93.8693716 124.242533,93.3767365 123.8132,92.9586959 C123.382311,92.5391014 122.870533,92.3293041 122.277867,92.3293041 C121.668089,92.3293041 121.143867,92.5422095 120.7052,92.9680203 C120.266533,93.3891689 120.045644,93.8942365 120.045644,94.4816689 C120.045644,95.0442365 120.269644,95.5353176 120.712978,95.9549122 C121.157867,96.3760608 121.678978,96.5858581 122.277867,96.5858581 C122.859644,96.5858581 123.368311,96.3698446 123.803867,95.9393716 C124.240978,95.5073446 124.458756,95.0069392 124.458756,94.4334932 M118.672089,94.4303851 C118.672089,93.5197095 119.032978,92.7131554 119.751644,92.0060608 C120.471867,91.2958581 121.296311,90.9430878 122.228089,90.9430878 C123.187867,90.9430878 124.026311,91.29275 124.741867,91.9874122 C125.458978,92.6851824 125.816756,93.4979527 125.816756,94.4303851 C125.816756,95.3674797 125.4652,96.1911284 124.762089,96.9044392 C124.058978,97.61775 123.246978,97.9751824 122.326089,97.9751824 C121.339867,97.9751824 120.484311,97.6224122 119.759422,96.9168716 C119.036089,96.2128851 118.672089,95.3830203 118.672089,94.4303851" id="Fill-25"></path>
                <path d="M55.0831556,114.004939 C54.6196,114.238047 53.6924889,114.469601 52.5056,114.469601 C49.7538222,114.469601 47.6833778,112.733723 47.6833778,109.537034 C47.6833778,106.483318 49.7538222,104.416426 52.7824889,104.416426 C53.9973778,104.416426 54.7642667,104.674399 55.0987111,104.850007 L54.7922667,105.877236 C54.3162667,105.645682 53.6349333,105.473182 52.8244889,105.473182 C50.5362667,105.473182 49.0164889,106.932439 49.0164889,109.495074 C49.0164889,111.880547 50.3916,113.412845 52.7669333,113.412845 C53.5338222,113.412845 54.3162667,113.255885 54.8218222,113.008791 L55.0831556,114.004939 Z" id="Fill-26"></path>
                <path d="M60.2115111,110.751061 C58.8192889,110.723088 57.2419556,110.970182 57.2419556,112.32998 C57.2419556,113.152074 57.7910667,113.543696 58.4444,113.543696 C59.3559556,113.543696 59.9346222,112.964034 60.1384,112.371939 C60.1804,112.241399 60.2115111,112.095318 60.2115111,111.964777 L60.2115111,110.751061 Z M60.3981778,114.323831 L60.2986222,113.442682 L60.2535111,113.442682 C59.8630667,113.992818 59.1101778,114.483899 58.1099556,114.483899 C56.6912889,114.483899 55.9664,113.486196 55.9664,112.471399 C55.9664,110.782142 57.4737333,109.855926 60.1804,109.868358 L60.1804,109.725385 C60.1804,109.145723 60.0217333,108.104507 58.5890667,108.104507 C57.9372889,108.104507 57.2575111,108.308088 56.7644,108.626669 L56.4750667,107.785926 C57.0552889,107.409845 57.8937333,107.16275 58.7772889,107.16275 C60.9192889,107.16275 61.4404,108.626669 61.4404,110.028426 L61.4404,112.645453 C61.4404,113.254642 61.4715111,113.846736 61.5570667,114.323831 L60.3981778,114.323831 Z" id="Fill-27"></path>
                <path d="M63.4988667,109.218297 C63.4988667,108.495662 63.4833111,107.900459 63.4413111,107.323905 L64.5690889,107.323905 L64.6422,108.480122 L64.6717556,108.480122 C65.0186444,107.816541 65.8290889,107.163838 66.9879778,107.163838 C67.9586444,107.163838 69.4644222,107.7435 69.4644222,110.144514 L69.4644222,114.323365 L68.1904222,114.323365 L68.1904222,110.289041 C68.1904222,109.160797 67.7704222,108.219041 66.5695333,108.219041 C65.7295333,108.219041 65.0777556,108.814243 64.8599778,109.521338 C64.8024222,109.682959 64.7728667,109.897419 64.7728667,110.113432 L64.7728667,114.323365 L63.4988667,114.323365 L63.4988667,109.218297 Z" id="Fill-28"></path>
                <path d="M76.5313111,114.065547 C76.1984222,114.238047 75.4610889,114.469601 74.5184222,114.469601 C72.4059778,114.469601 71.0293111,113.036764 71.0293111,110.896831 C71.0293111,108.741358 72.5070889,107.17798 74.7953111,107.17798 C75.5466444,107.17798 76.2139778,107.36602 76.5608667,107.540074 L76.2715333,108.523791 C75.9666444,108.349736 75.4890889,108.192777 74.7953111,108.192777 C73.1868667,108.192777 72.3173111,109.375412 72.3173111,110.839331 C72.3173111,112.460209 73.3610889,113.454804 74.7502,113.454804 C75.4735333,113.454804 75.9526444,113.269872 76.3135333,113.109804 L76.5313111,114.065547 Z" id="Fill-29"></path>
                <path d="M83.0207778,104.301115 L81.2536667,106.368007 L80.3405556,106.368007 L81.6161111,104.301115 L83.0207778,104.301115 Z M83.8887778,112.414831 C83.8887778,113.13902 83.9027778,113.774628 83.9478889,114.323209 L82.817,114.323209 L82.7438889,113.182534 L82.7158889,113.182534 C82.383,113.746655 81.6441111,114.484831 80.3981111,114.484831 C79.2983333,114.484831 77.9807778,113.874088 77.9807778,111.418682 L77.9807778,107.32375 L79.2547778,107.32375 L79.2547778,111.199561 C79.2547778,112.529831 79.6607778,113.428074 80.8196667,113.428074 C81.6736667,113.428074 82.2678889,112.832872 82.4981111,112.271858 C82.5712222,112.083818 82.6147778,111.849155 82.6147778,111.619155 L82.6147778,107.32375 L83.8887778,107.32375 L83.8887778,112.414831 Z" id="Fill-30"></path>
                <path d="M86.0043333,109.218297 C86.0043333,108.495662 85.9887778,107.900459 85.9467778,107.323905 L87.0745556,107.323905 L87.1476667,108.480122 L87.1772222,108.480122 C87.5256667,107.816541 88.3345556,107.163838 89.4934444,107.163838 C90.4641111,107.163838 91.9698889,107.7435 91.9698889,110.144514 L91.9698889,114.323365 L90.6958889,114.323365 L90.6958889,110.289041 C90.6958889,109.160797 90.2758889,108.219041 89.075,108.219041 C88.235,108.219041 87.5832222,108.814243 87.3654444,109.521338 C87.3078889,109.682959 87.2783333,109.897419 87.2783333,110.113432 L87.2783333,114.323365 L86.0043333,114.323365 L86.0043333,109.218297 Z" id="Fill-31"></path>
                <path d="M32.3893111,19.5066419 C32.3893111,23.3824527 35.5346444,26.52475 39.4157556,26.52475 C43.2968667,26.52475 46.4406444,23.3824527 46.4406444,19.5066419 C46.4406444,15.627723 43.2968667,12.4854257 39.4157556,12.4854257 C35.5346444,12.4854257 32.3893111,15.627723 32.3893111,19.5066419" id="Fill-32"></path>
                <path id="Fill-33"></path>
                <path d="M130.269378,11.34475 C130.222711,11.3121149 129.889822,11.0758986 129.5896,10.8863041 C129.1976,10.6361014 128.668711,10.3221824 127.982711,9.95231757 C126.615378,9.21414189 124.6476,8.29103378 122.066933,7.43785811 C119.492489,6.59089865 116.291156,5.8449527 112.592044,5.54191216 C108.8976,5.23265541 104.708489,5.43157432 100.354489,6.32515541 C98.1751556,6.76184459 95.9693778,7.40833108 93.7620444,8.20400676 C93.2098222,8.40137162 92.6513778,8.60029054 92.1084889,8.83339865 C91.8331556,8.94684459 91.5562667,9.05873649 91.2824889,9.17218243 L90.8671556,9.34312838 L90.5638222,9.46900676 L90.3802667,9.55447973 C89.8933778,9.77981757 89.4033778,10.0067095 88.9087111,10.2367095 C88.3533778,10.511777 87.7918222,10.7915068 87.2271556,11.0727905 C82.8700444,13.3199527 78.7602667,16.0970473 74.7998222,19.1088041 C70.8347111,22.1096824 67.0064889,25.3001554 63.0880444,28.3025878 C59.1680444,31.3065743 55.1391556,34.1209662 50.8473778,36.3696824 C46.5633778,38.6215068 42.0258222,40.3340743 37.3467111,41.3100203 C36.7664889,41.4529932 36.1753778,41.5384662 35.5889333,41.6488041 L34.7084889,41.8073176 L34.5980444,41.8275203 C34.5684889,41.8321824 34.6758222,41.8213041 34.6011556,41.8306284 L34.5436,41.8383986 L34.3102667,41.8694797 L33.8436,41.93475 L33.3784889,41.9984662 L32.9756,42.0388716 C32.7064889,42.0637365 32.4467111,42.0994797 32.1713778,42.1181284 C31.6082667,42.1507635 31.0467111,42.1865068 30.4882667,42.1833986 C28.2544889,42.2113716 26.0596,41.9083311 23.9844889,41.30225 C21.9093778,40.6883986 19.9680444,39.7481959 18.2242667,38.5624527 C16.4882667,37.3596149 14.9591556,35.9158986 13.6789333,34.316777 C11.1169333,31.1107635 9.56915556,27.3437365 8.96715556,23.7336689 C8.35115556,20.112723 8.69493333,16.6456284 9.63448889,13.7783986 C10.5740444,10.8987365 12.0984889,8.63914189 13.6198222,7.04157432 C15.1489333,5.44089865 16.6204889,4.44785811 17.6502667,3.83556081 C18.1667111,3.52785811 18.5727111,3.31184459 18.8542667,3.17508784 C19.1311556,3.03366892 19.2742667,2.95907432 19.2742667,2.95907432 C19.2742667,2.95907432 19.1249333,3.02123649 18.8340444,3.13623649 C18.5431556,3.24657432 18.1153778,3.42529054 17.5709333,3.68637162 C16.4804889,4.20542568 14.9000444,5.06637162 13.1687111,6.57380405 C11.4482667,8.07657432 9.61737778,10.2942095 8.32937778,13.2826554 C7.03826667,16.2555608 6.31026667,19.9728581 6.61671111,24.0118446 C6.91537778,28.0383986 8.22204444,32.3959662 10.8307111,36.3696824 C12.1358222,38.3479932 13.7676,40.2159662 15.7089333,41.8430608 C17.6596,43.457723 19.9167111,44.8268446 22.3884889,45.815223 C24.8633778,46.7973851 27.5327111,47.4190068 30.2549333,47.6396824 C30.9362667,47.7049527 31.6176,47.7267095 32.3036,47.7469122 C32.6473778,47.7562365 33.0144889,47.7453581 33.3691556,47.7438041 L33.9058222,47.7360338 L34.3740444,47.714277 L34.8453778,47.6940743 L35.0802667,47.6816419 L35.1393778,47.6800878 L35.2591556,47.6707635 L35.3836,47.6583311 L36.3744889,47.5650878 C37.0324889,47.4982635 37.6998222,47.4531959 38.3609333,47.3490743 C43.6731556,46.6948176 49.0009333,45.1796149 54.0082667,43.0490068 C59.0280444,40.9261689 63.7024889,38.1910338 68.0596,35.3875203 C72.4213778,32.5808986 76.5047111,29.716777 80.4496,27.2163041 C84.3789333,24.7049527 88.2320444,22.5805608 91.8736,21.0715743 C92.3153778,20.8959662 92.7524889,20.7203581 93.1864889,20.5463041 C93.6967111,20.3582635 94.2053778,20.171777 94.7109333,19.9868446 C95.1340444,19.8531959 95.5556,19.7195473 95.9740444,19.5858986 C96.4142667,19.4382635 96.8576,19.3248176 97.2962667,19.2082635 C99.0462667,18.7404932 100.743378,18.3939392 102.370489,18.2136689 C105.6216,17.8360338 108.574044,17.9556959 111.097156,18.389277 C113.621822,18.81975 115.731156,19.50975 117.372267,20.2152905 C119.013378,20.9208311 120.200267,21.6170473 120.912711,22.0925878 C121.270489,22.32725 121.519378,22.5106284 121.642267,22.6116419 C121.802489,22.7390743 121.656267,22.6411689 121.7356,22.6971149 C124.8716,25.0515068 129.326711,24.4190068 131.681822,21.2844797 C134.040044,18.1483986 133.406933,13.6991419 130.269378,11.34475" id="Fill-34"></path>
                <path d="M116.621711,32.2236216 C116.621711,32.2236216 116.337044,31.9796351 115.801933,31.5227432 C115.602822,31.3657838 115.380378,31.1870676 115.136156,30.9943649 C114.888822,30.8032162 114.667933,30.6664595 114.400378,30.481527 C114.1406,30.2997027 113.855933,30.1303108 113.549489,29.9515946 C113.246156,29.7651081 112.917933,29.5895 112.569489,29.4154459 C111.180378,28.7067973 109.453711,28.0401081 107.489044,27.6096351 C105.524378,27.1620676 103.327933,26.9336216 100.996156,26.9569324 C98.6643778,26.9895676 96.1988222,27.2724054 93.6850444,27.8303108 C91.1728222,28.3897703 88.6139333,29.2180811 86.0939333,30.3059189 C84.8370444,30.8576081 83.5801556,31.4512568 82.3528222,32.1272703 C81.7368222,32.4629459 81.1270444,32.8126081 80.5234889,33.1778108 L79.6197111,33.7326081 L78.7812667,34.2734189 C76.5459333,35.7109189 74.2779333,37.1701757 72.0099333,38.6294324 C67.4661556,41.5184189 62.9037111,44.3421351 58.5061556,46.7338243 C54.1117111,49.1286216 49.8666,51.0696351 46.0492667,52.214973 C44.1452667,52.7946351 42.3563778,53.1831486 40.7494889,53.4053784 C39.1394889,53.6291622 37.7177111,53.6882162 36.5432667,53.6757838 C35.3719333,53.6431486 34.4479333,53.5607838 33.8210444,53.4784189 C33.1926,53.3898378 32.8581556,53.3432162 32.8581556,53.3432162 C32.8581556,53.3432162 33.1848222,53.4302432 33.7992667,53.5918649 C34.4152667,53.7472703 35.3283778,53.939973 36.5106,54.112473 C37.6943778,54.2647703 39.1472667,54.3782162 40.8210444,54.344027 C42.4963778,54.3113919 44.3863778,54.1295676 46.4210444,53.7643649 C50.4981556,53.0510541 55.1103778,51.5653784 59.8766,49.657 C64.6506,47.7486216 69.5988222,45.4408514 74.4926,43.0849054 C76.9286,41.8976081 79.3677111,40.7087568 81.7679333,39.5401081 L82.6608222,39.1018649 L83.4946,38.7071351 C84.0514889,38.4476081 84.6083778,38.2051757 85.1668222,37.9751757 C86.2821556,37.5074054 87.4068222,37.122 88.5159333,36.7723378 C90.7357111,36.087 92.9259333,35.6394324 94.9870444,35.4109865 C97.0497111,35.1840946 98.9832667,35.1825405 100.702156,35.3488243 C102.416378,35.5228784 103.912822,35.8601081 105.121489,36.287473 C106.344156,36.7008514 107.260378,37.207473 107.927711,37.6519324 C108.098822,37.7622703 108.252822,37.8695 108.383489,37.9782838 C108.521933,38.0839595 108.6526,38.1787568 108.753711,38.2782162 C108.854822,38.3699054 108.987044,38.4709189 109.035267,38.531527 C109.0866,38.589027 109.136378,38.6403108 109.179933,38.6838243 C109.567267,39.0940946 109.7726,39.3132162 109.7726,39.3132162 L109.819267,39.3629459 C109.9406,39.4903784 110.068156,39.6131486 110.205044,39.7297027 C112.280156,41.4982162 115.399044,41.2542297 117.170822,39.1811216 C118.941044,37.1080135 118.696822,33.9936892 116.621711,32.2236216" id="Fill-35"></path>
                <path d="M17.0753333,14.1675338 C16.9866667,14.51875 16.8995556,14.8730743 16.8108889,15.2305068 C16.7191111,15.5848311 16.6397778,15.9469257 16.5915556,16.3198986 C16.5371111,16.6897635 16.4811111,17.0627365 16.4251111,17.4388176 C16.3986667,17.8195608 16.3753333,18.2049662 16.3488889,18.5919257 C16.3177778,18.975777 16.3208889,19.3689527 16.338,19.7683446 L16.3597778,20.3651014 C16.366,20.5624662 16.3722222,20.756723 16.4048889,20.9976014 C16.4577778,21.4529392 16.5215556,21.9113851 16.59,22.366723 C16.6646667,22.7396959 16.7486667,23.0085473 16.828,23.3380068 L16.8886667,23.574223 C16.856,23.4234797 16.9384444,23.8135473 16.9353333,23.7871284 L16.9493333,23.8275338 L16.9773333,23.9052365 L17.0317778,24.0621959 L17.2542222,24.6884797 C17.3351111,24.8936149 17.402,25.1080743 17.4937778,25.3054392 L17.7831111,25.8928716 C18.5608889,27.45625 19.6062222,28.8533446 20.8475556,30.015777 C22.0826667,31.1782095 23.4655556,32.1883446 24.9775556,32.9109797 L25.536,33.1984797 C25.7273333,33.2839527 25.9217778,33.3569932 26.1146667,33.43625 C26.502,33.5901014 26.8877778,33.7423986 27.2766667,33.8946959 L28.4666667,34.2474662 C28.8648889,34.3671284 29.2615556,34.4759122 29.6691111,34.5411824 L30.8762222,34.7727365 C31.2791111,34.8519932 31.6866667,34.8690878 32.0895556,34.9172635 C32.4955556,34.9530068 32.9,35.0089527 33.3044444,35.0229392 L34.5131111,35.0384797 C35.3204444,35.074223 36.1168889,34.9825338 36.9117778,34.9296959 C37.6988889,34.8986149 38.5186667,34.7230068 39.3166667,34.6111149 C40.1551111,34.5038851 40.8053333,34.2956419 41.5411111,34.1324662 L42.0777778,34.0050338 L42.4122222,33.925777 L42.6906667,33.83875 L43.8028889,33.4890878 L44.9073333,33.1378716 C45.2666667,33.005777 45.6166667,32.8581419 45.9713333,32.7198311 C46.6682222,32.4276689 47.39,32.1836824 48.0588889,31.8511149 C48.734,31.5340878 49.4044444,31.2186149 50.0733333,30.9046959 C50.7328889,30.5736824 51.3706667,30.2209122 52.0131111,29.8821284 C52.6586667,29.555777 53.2855556,29.2014527 53.8984444,28.8409122 C54.5128889,28.4803716 55.1304444,28.1369257 55.7293333,27.7748311 C56.9084444,27.025777 58.0922222,26.3264527 59.1966667,25.5649662 C59.7551111,25.1966554 60.3088889,24.8314527 60.8564444,24.4693581 C61.3931111,24.0979392 61.9235556,23.7296284 62.4477778,23.3644257 C64.5415556,21.9144932 66.4595556,20.4630068 68.2188889,19.1140878 C69.9626667,17.7434122 71.5415556,16.4659797 72.9353333,15.3299662 C74.3213333,14.1830743 75.5082222,13.1589527 76.4788889,12.3088851 C77.434,11.441723 78.2008889,10.7781419 78.7002222,10.3026014 C79.2073333,9.83327703 79.478,9.58307432 79.478,9.58307432 C79.478,9.58307432 79.1995556,9.82239865 78.6768889,10.2730743 C78.1557778,10.7284122 77.3748889,11.3717905 76.3668889,12.1752365 C75.3526667,12.9709122 74.1128889,13.9235473 72.6677778,14.9880743 C71.9413333,15.5117905 71.1651111,16.0696959 70.35,16.6571284 C69.5177778,17.2196959 68.6404444,17.8102365 67.7257778,18.42875 C65.8777778,19.6315878 63.868,20.9214527 61.6917778,22.1926689 C59.5357778,23.4980743 57.1791111,24.7273311 54.7306667,25.9394932 C52.2588889,27.1019257 49.6828889,28.2565878 46.9933333,29.1128716 C46.3322222,29.3615203 45.6446667,29.5091554 44.9726667,29.7127365 C44.6335556,29.8059797 44.296,29.9085473 43.9553333,29.9955743 L42.9333333,30.2022635 L41.9128889,30.4105068 L41.6593333,30.4633446 C41.776,30.4384797 41.6717778,30.4586824 41.6888889,30.4540203 L41.6546667,30.4586824 L41.5862222,30.4664527 L41.4477778,30.4835473 L40.8986667,30.5503716 C40.1815556,30.6234122 39.396,30.7648311 38.7597778,30.7539527 C38.0893333,30.7601689 37.45,30.8363176 36.7608889,30.7788176 C36.0857778,30.7430743 35.406,30.7477365 34.7511111,30.6358446 L33.7664444,30.5115203 C33.4413333,30.4602365 33.1255556,30.3732095 32.8082222,30.3079392 C32.4924444,30.2302365 32.1704444,30.186723 31.8671111,30.0857095 L30.9586667,29.7919932 C30.6537778,29.7080743 30.3675556,29.58375 30.0844444,29.4532095 L29.2366667,29.0864527 L28.4495556,28.6435473 C28.3188889,28.5689527 28.1835556,28.5036824 28.0591111,28.4244257 L27.6966667,28.1695608 C26.7042222,27.5370608 25.8968889,26.7320608 25.2233333,25.9115203 C24.5342222,25.0956419 24.0815556,24.1709797 23.8031111,23.3022635 L23.6973333,22.9790203 C23.6646667,22.8717905 23.6568889,22.7630068 23.6366667,22.655777 L23.5806667,22.3744932 C23.5884444,22.4117905 23.59,22.424223 23.5775556,22.3589527 L23.5526667,22.1165203 C23.5231111,21.8072635 23.4686667,21.4436149 23.4593333,21.1825338 C23.4826667,20.9976014 23.4951111,20.8204392 23.5013333,20.6463851 C23.4982222,20.5717905 23.5168889,20.4505743 23.5308889,20.3340203 L23.5744444,19.9921284 C23.5931111,19.7667905 23.6226667,19.5414527 23.6833333,19.3161149 C23.7284444,19.0923311 23.7766667,18.8716554 23.8233333,18.6525338 C23.8917778,18.4365203 23.9602222,18.2205068 24.0271111,18.0076014 C24.0815556,17.7931419 24.1608889,17.5880068 24.2526667,17.3859797 C24.3351111,17.1839527 24.4175556,16.9834797 24.4968889,16.7876689 C24.7037778,16.4084797 24.878,16.0292905 25.0926667,15.6827365 C25.942,14.2856419 27.0246667,13.2739527 28.0513333,12.5435473 C28.322,12.3757095 28.5802222,12.2109797 28.8244444,12.0493581 C29.0811111,11.903277 29.3517778,11.7913851 29.5913333,11.6639527 C29.7111111,11.6033446 29.8293333,11.5427365 29.9444444,11.4821284 C30.0704444,11.4370608 30.1948889,11.3935473 30.3162222,11.3500338 C30.5511111,11.2614527 30.7782222,11.1775338 30.9913333,11.096723 C31.8857778,10.8371959 32.5982222,10.6755743 33.1193333,10.6305068 C33.6233333,10.5559122 33.8908889,10.5170608 33.8908889,10.5170608 L34.1926667,10.4735473 C34.4835556,10.4284797 34.776,10.3585473 35.0653333,10.26375 C37.828,9.34375 39.3197778,6.36152027 38.3988889,3.60152027 C37.478,0.843074324 34.4928889,-0.647263514 31.7317778,0.271182432 C31.7317778,0.271182432 31.2868889,0.420371622 30.4546667,0.696993243 C29.624,0.945641892 28.4184444,1.46158784 26.9406667,2.20597973 C26.5782222,2.41422297 26.1986667,2.6364527 25.7988889,2.86800676 C25.6013333,2.98611486 25.4006667,3.10577703 25.1937778,3.23010135 C24.9977778,3.37307432 24.7955556,3.51760135 24.5902222,3.66679054 C24.1826667,3.97138514 23.7548889,4.26820946 23.3348889,4.61787162 C22.9335556,4.98618243 22.5151111,5.36847973 22.0842222,5.76320946 C20.4275556,7.41050676 18.8828889,9.57841216 17.7924444,12.1581419 C17.5171111,12.7999662 17.304,13.48375 17.0753333,14.1675338" id="Fill-36"></path>
            </g>
        </g>
    </g>
</svg>